<svg width="72" height="72" viewBox="0 0 72 72" fill="none" xmlns="http://www.w3.org/2000/svg">
<g filter="url(#filter0_d_2_490)">
<path d="M56 64H16C9.372 64 4 58.628 4 52V12C4 5.372 9.372 0 16 0H56C62.628 0 68 5.372 68 12V52C68 58.628 62.628 64 56 64Z" fill="#FFE6E2"/>
<path d="M36 26.666C33.06 26.666 30.666 24.274 30.666 21.332C30.666 18.39 33.06 16 36 16C38.94 16 41.334 18.392 41.334 21.334C41.334 24.276 38.94 26.666 36 26.666Z" fill="#FC573B"/>
<path d="M40.666 28H31.332C27.946 28 25.186 30.666 25.012 34H46.986C46.814 30.666 44.054 28 40.666 28Z" fill="#FC573B"/>
<path d="M41.666 48H30.332C29.838 48 29.418 47.64 29.344 47.152L28.01 38.486C27.966 38.196 28.05 37.904 28.24 37.682C28.43 37.46 28.708 37.334 29 37.334H43C43.292 37.334 43.57 37.462 43.76 37.682C43.95 37.904 44.034 38.196 43.99 38.486L42.656 47.152C42.58 47.64 42.16 48 41.666 48Z" fill="#FD907E"/>
<path d="M51.8199 33.76C51.6339 33.494 51.3279 33.334 50.9999 33.334H50.9559C50.7439 30.378 49.1539 27.642 46.6659 25.988C46.6579 24.888 45.7659 24 44.6659 24C43.5619 24 42.6659 24.896 42.6659 26C42.6659 27.104 43.5619 28 44.6659 28C45.0319 28 45.3699 27.894 45.6639 27.724C47.5399 29.016 48.7519 31.088 48.9559 33.334H20.9999C20.6739 33.334 20.3679 33.492 20.1799 33.76C19.9919 34.028 19.9479 34.37 20.0579 34.676L22.7239 42.01C22.8679 42.406 23.2439 42.668 23.6639 42.668H25.9539L25.3739 38.892C25.2119 37.832 25.5179 36.758 26.2159 35.946C26.9139 35.134 27.9279 34.668 28.9979 34.668H42.9979C44.0679 34.668 45.0819 35.134 45.7799 35.946C46.4779 36.758 46.7839 37.832 46.6219 38.89L46.0399 42.668H48.3299C48.7499 42.668 49.1259 42.404 49.2699 42.01L51.9359 34.676C52.0519 34.368 52.0059 34.028 51.8199 33.76Z" fill="#FD907E"/>
</g>
<defs>
<filter id="filter0_d_2_490" x="0" y="0" width="72" height="72" filterUnits="userSpaceOnUse" color-interpolation-filters="sRGB">
<feFlood flood-opacity="0" result="BackgroundImageFix"/>
<feColorMatrix in="SourceAlpha" type="matrix" values="0 0 0 0 0 0 0 0 0 0 0 0 0 0 0 0 0 0 127 0" result="hardAlpha"/>
<feOffset dy="4"/>
<feGaussianBlur stdDeviation="2"/>
<feColorMatrix type="matrix" values="0 0 0 0 1 0 0 0 0 0.901961 0 0 0 0 0.886275 0 0 0 0.2 0"/>
<feBlend mode="normal" in2="BackgroundImageFix" result="effect1_dropShadow_2_490"/>
<feBlend mode="normal" in="SourceGraphic" in2="effect1_dropShadow_2_490" result="shape"/>
</filter>
</defs>
</svg>
