<svg width="15" height="17" viewBox="0 0 15 17" fill="none" xmlns="http://www.w3.org/2000/svg">
<path d="M4.79788 6.44825C4.81724 5.48347 5.6179 4.71435 6.58264 4.73371L10.8318 4.819L10.8769 2.56945C10.8852 2.15531 10.5563 1.81286 10.1421 1.80455L7.62358 1.754C7.28926 1.14999 6.65156 0.734293 5.91306 0.719471C5.17455 0.704649 4.52069 1.09442 4.1624 1.68454L1.64385 1.63399C1.22971 1.62568 0.887259 1.95465 0.878947 2.36879L0.668253 12.8667C0.659941 13.2808 0.988917 13.6233 1.40305 13.6316L4.6524 13.6968L4.79788 6.44825ZM5.88797 1.96922C6.30211 1.97753 6.63108 2.31998 6.62277 2.73412C6.61446 3.14825 6.27201 3.47723 5.85787 3.46892C5.44374 3.46061 5.11476 3.11815 5.12307 2.70402C5.13139 2.28988 5.47384 1.96091 5.88797 1.96922ZM11.4813 9.83304L14.7306 9.89825L14.6052 16.147C14.5969 16.5611 14.2545 16.8901 13.8403 16.8818L6.34185 16.7313C5.92771 16.723 5.59874 16.3805 5.60705 15.9664L5.79768 6.46831C5.80599 6.05418 6.14844 5.7252 6.56257 5.73351L10.8117 5.81879L10.7465 9.06814C10.7382 9.48056 11.0689 9.82476 11.4813 9.83304ZM14.7545 8.70915L14.7507 8.89845L11.7513 8.83826L11.8115 5.83886L12.0008 5.84266C12.1997 5.84665 12.3888 5.92948 12.5266 6.07291L14.5455 8.1745C14.6833 8.31795 14.7585 8.51027 14.7545 8.70915Z" fill="#414D60"/>
</svg>
