<svg width="17" height="17" viewBox="0 0 17 17" fill="none" xmlns="http://www.w3.org/2000/svg">
<path d="M16.2744 12.202L16.4856 1.67777C16.494 1.26118 16.1186 0.91837 15.6437 0.908838L3.93179 0.673778C2.03931 0.635796 0.476875 1.95183 0.443557 3.61189L0.242393 13.6349C0.209076 15.295 1.71745 16.6727 3.60993 16.7106L15.3219 16.9457C15.7968 16.9552 16.1855 16.6278 16.1939 16.2112L16.204 15.71C16.2087 15.4751 16.088 15.2596 15.8979 15.1179C15.7576 14.6326 15.7852 13.2575 15.9449 12.7782C16.1404 12.6474 16.2697 12.4369 16.2744 12.202ZM4.99018 4.89386C4.99225 4.7905 5.09036 4.70786 5.20819 4.71023L12.7781 4.86216C12.8959 4.86452 12.9906 4.95103 12.9886 5.05439L12.976 5.68083C12.9739 5.78419 12.8758 5.86683 12.758 5.86446L5.18808 5.71253C5.07024 5.71017 4.97553 5.62366 4.9776 5.5203L4.99018 4.89386ZM4.94994 6.89847C4.95202 6.79511 5.05013 6.71247 5.16796 6.71484L12.7379 6.86677C12.8557 6.86913 12.9504 6.95564 12.9483 7.059L12.9358 7.68544C12.9337 7.7888 12.8356 7.87144 12.7177 7.86907L5.14784 7.71714C5.03001 7.71478 4.9353 7.62827 4.93737 7.52491L4.94994 6.89847ZM13.841 14.9106L3.65016 14.706C3.01814 14.6934 2.51652 14.2352 2.52765 13.6808C2.53871 13.1295 3.06195 12.6888 3.69039 12.7014L13.8812 12.906C13.8026 13.4402 13.7839 14.3736 13.841 14.9106Z" fill="#414D60"/>
</svg>
