<svg width="18" height="17" viewBox="0 0 18 17" fill="none" xmlns="http://www.w3.org/2000/svg">
<path d="M8.85702 16.7486C4.44662 16.6601 0.930642 13.0001 1.01916 8.5897C1.10768 4.1793 4.76767 0.66332 9.17808 0.751837C13.5885 0.840355 17.1045 4.50035 17.0159 8.91075C16.9274 13.3212 13.2674 16.8371 8.85702 16.7486ZM9.16738 1.28496C5.05111 1.20234 1.63489 4.48413 1.55228 8.6004C1.46966 12.7167 4.75145 16.1329 8.86772 16.2155C12.984 16.2981 16.4002 13.0163 16.4828 8.90005C16.5654 4.78379 13.2836 1.36757 9.16738 1.28496ZM10.044 2.00624L10.0281 2.80027C11.0016 2.96374 11.9197 3.36496 12.701 3.96834L13.2731 3.41971C12.3602 2.68963 11.2555 2.18897 10.044 2.00624ZM8.25823 1.97266C7.04109 2.10762 5.91814 2.56453 4.97761 3.25709L5.52368 3.82816L5.52626 3.82821C6.3141 3.26842 7.24053 2.89274 8.24235 2.76411L8.25823 1.97266ZM8.62084 3.59865L8.5672 6.27134C8.24208 6.33031 7.93703 6.45034 7.66741 6.62174L5.81474 4.69417L5.09327 5.38726L6.94749 7.31743C6.76575 7.57932 6.63133 7.87862 6.55969 8.2008L3.88604 8.14714L3.86597 9.14693L6.53962 9.20059C6.59829 9.52506 6.72096 9.82726 6.89172 10.0962L4.96153 11.9511L5.65462 12.6726L7.58315 10.8199C7.85026 11.0053 8.15081 11.137 8.46812 11.2078L8.41446 13.8814L9.41426 13.9015L9.46792 11.2278C9.79336 11.1689 10.0966 11.0449 10.3662 10.8732L12.2204 12.804L12.9419 12.1109L11.0877 10.1801C11.2691 9.91822 11.4044 9.6212 11.4764 9.29935L14.1491 9.35299L14.1691 8.3532L11.4964 8.29955C11.4378 7.97509 11.3145 7.67062 11.1434 7.40132L13.0736 5.5471L12.3805 4.82563L10.4503 6.67985C10.1878 6.49745 9.88982 6.36306 9.567 6.29108L9.62064 3.61871L8.62084 3.59865ZM14.5107 4.70803L13.9396 5.25668C14.5126 6.06235 14.8781 6.99693 15.0036 7.97761L15.7976 7.99354C15.6624 6.77478 15.2049 5.64924 14.5107 4.70803ZM3.68863 4.49502C2.95857 5.40701 2.45728 6.51136 2.27359 7.72244L3.06859 7.73839C3.23699 6.74286 3.64761 5.83188 4.23823 5.06713L3.68863 4.49502ZM2.23777 9.50692C2.37209 10.724 2.82802 11.8476 3.52058 12.7882L4.09172 12.2385C3.5329 11.4507 3.16078 10.5237 3.03278 9.52255L2.23778 9.50659L2.23777 9.50692ZM14.9675 9.7624C14.7987 10.7589 14.3871 11.6705 13.7952 12.4362L14.3438 13.0073C15.0746 12.0947 15.5775 10.9901 15.7615 9.77834L14.9675 9.7624ZM5.32932 13.5281L4.75819 14.0768C5.67048 14.8078 6.77578 15.3104 7.98717 15.4945L8.00312 14.6998C7.00664 14.5304 6.09405 14.1197 5.32932 13.5281ZM12.5062 13.6738C11.7177 14.2336 10.791 14.6099 9.78852 14.7379L9.77262 15.5303C10.9907 15.396 12.1143 14.9388 13.0558 14.2459L12.5088 13.6739L12.5062 13.6738Z" fill="#414D60"/>
</svg>
