<svg width="20" height="17" viewBox="0 0 20 17" fill="none" xmlns="http://www.w3.org/2000/svg">
<path d="M8.72925 4.82319L6.33924 1.17418C6.24097 1.02407 6.1002 0.898648 5.93063 0.810123C5.76105 0.721598 5.56847 0.672992 5.37163 0.669039L1.41272 0.589584C0.951474 0.580326 0.672355 1.03013 0.929985 1.36693L4.79349 6.41297C5.86946 5.56658 7.22777 4.99809 8.72925 4.82319ZM18.5071 0.93267L14.5482 0.853214C14.1478 0.845179 13.773 1.02207 13.5611 1.31913L11.0266 4.8693C12.5198 5.10431 13.8542 5.72683 14.8954 6.6154L18.9582 1.72876C19.2292 1.40257 18.9683 0.941927 18.5071 0.93267ZM9.85958 5.76012C6.39754 5.69064 3.54145 8.09631 3.48049 11.1332C3.41954 14.1701 6.17681 16.6884 9.63885 16.7579C13.1009 16.8274 15.957 14.4217 16.0179 11.3848C16.0789 8.34794 13.3216 5.8296 9.85958 5.76012ZM13.0563 10.7396L11.6822 11.8673L11.9689 13.5053C12.02 13.7988 11.6644 14.0152 11.3683 13.8711L9.71292 13.0674L8.02699 13.804C7.72501 13.9371 7.37869 13.7054 7.44154 13.4144L7.79377 11.7893L6.46597 10.6074C6.22722 10.395 6.36877 10.0356 6.70443 9.99985L8.57665 9.79863L9.44098 8.33067C9.51881 8.19846 9.66546 8.13545 9.81113 8.13838C9.95752 8.14131 10.1026 8.21111 10.1751 8.34541L10.9798 9.84686L12.8424 10.123C13.1764 10.1723 13.3034 10.5371 13.0563 10.7396Z" fill="#414D60"/>
</svg>
