<svg width="17" height="17" viewBox="0 0 17 17" fill="none" xmlns="http://www.w3.org/2000/svg">
<path d="M15.9459 13.2611L12.3609 9.52942C11.6537 8.79328 10.5787 8.63106 9.70155 9.04163L6.438 5.64453L6.47694 3.70449L2.53816 0.625122L0.498543 2.58439L3.41752 6.64339L5.35764 6.68233L8.6212 10.0794C8.17888 10.9394 8.29471 12.02 9.00191 12.7561L12.5869 16.4878C13.0339 16.9531 13.7712 16.9679 14.2334 16.5208L15.9129 14.9075C16.375 14.4605 16.3898 13.7232 15.9459 13.2611ZM10.7606 7.82213C11.6447 7.83987 12.4688 8.2002 13.0811 8.83755L13.6751 9.45578C14.173 9.25013 14.6477 8.95963 15.062 8.56165C16.2443 7.42588 16.6707 5.80302 16.3317 4.31482C16.2687 4.03227 15.9176 3.92834 15.7072 4.13039L13.3362 6.40804L11.2219 6.01245L10.9115 3.88412L13.2825 1.60647C13.4929 1.40442 13.4 1.04939 13.1171 0.971832C11.6436 0.576595 10.0049 0.937497 8.8257 2.0702C7.91743 2.94269 7.47522 4.10894 7.47357 5.2809L9.98706 7.89724C10.2413 7.84296 10.5044 7.81698 10.7606 7.82213ZM7.4631 10.3187L5.72723 8.51181L0.870339 13.1805C0.0736149 13.9458 0.0482212 15.211 0.813595 16.0077C1.57897 16.8044 2.84427 16.8298 3.64099 16.0645L7.58 12.2806C7.35504 11.6542 7.29679 10.9748 7.4631 10.3187ZM2.24221 15.3707C1.82982 15.3624 1.49918 15.0183 1.50745 14.6059C1.51579 14.1904 1.85679 13.8628 2.27231 13.8712C2.68783 13.8795 3.01541 14.2205 3.00707 14.636C2.99879 15.0484 2.65773 15.3791 2.24221 15.3707Z" fill="#414D60"/>
</svg>
